# xmcd CD database file
#
# Track frame offsets:
#	150
#	6912
#	22565
#	48031
#	72226
#	91919
#	119750
#	146600
#	166132
#	197507
#	220181
#	250034
#
# Disc length: 3432 seconds
#
# Revision: 0
# Processed by: cddbd v1.5.2PL0 Copyright (c) Steve Scherf et al.
# Submitted via: CDex 1.51
#
DISCID=950d660c
DTITLE=Sato-San To - Salep
DYEAR=2010
DGENRE=Jazz
TTITLE0=Intro
TTITLE1=Zheng Orient
TTITLE2=Shinning
TTITLE3=Karmapa Chenno
TTITLE4=Salep
TTITLE5=Uppsala
TTITLE6=Alibaba
TTITLE7=Mahatma
TTITLE8=Project X
TTITLE9=Ministr
TTITLE10=Somellier
TTITLE11=Outro
EXTD=YEAR: 2010
EXTT0=
EXTT1=
EXTT2=
EXTT3=
EXTT4=
EXTT5=
EXTT6=
EXTT7=
EXTT8=
EXTT9=
EXTT10=
EXTT11=
PLAYORDER=
